# xmcd CD database file
#
# Track frame offsets:
#	150
#	13212
#	20837
#	33590
#	42430
#	53790
#	65537
#	77710
#	96232
#	110425
#	121827
#	133112
#	142022
#	151455
#	163097
#	175357
#
# Disc length: 2477 seconds
#
# Revision: 0
# Processed by: cddbd v1.5.1PL0 Copyright (c) Steve Scherf et al.
# Submitted via: CDex 1.51
#
DISCID=e509ab10
DTITLE=COUNTRY and WESTERN HIGHLIGHTS - COUNMTRY and WESTERN HIGHLIGHTS VOLUM 3
DYEAR=1900
DGENRE=Country
TTITLE0=BOBBY HELMS - FRAULEIN
TTITLE1=CURTIS GORDON - OH, LONELY HEART
TTITLE2=BILL WATKINS - MUCH TO MUCH FOR E
TTITLE3=BOB LUMAN - RUNNING SCARED
TTITLE4=BRENDA LEE - MAKE THE WORLD GO AWAY
TTITLE5=JODY REYNOLDS - LONG BLACCK TRAIN
TTITLE6=DON RADER - YOU ARE MY SUNSHINE
TTITLE7=SONNY FISHER - IT'S A HEARTACHE
TTITLE8=SLEEPY LA BEEF - DON'T BE ANGRY
TTITLE9=ERNEST TUBB - I WALK THE LINE
TTITLE10=JUDY LYNN - DRIFTIN'
TTITLE11=JOHNNY PERGUSON - WHAT A SAD SAD DAY THAT WILL BE
TTITLE12=WEBB PIERCE - IN THE JAILHOUSE NOW
TTITLE13=BILL MONROE  GOTTA TRAVEL ON
TTITLE14=EDDY BOND - WHEN THE JUKEBOX PLAYS
TTITLE15=JOHNNY CASH - THERE YOU GO
EXTD=
EXTT0=
EXTT1=
EXTT2=
EXTT3=
EXTT4=
EXTT5=
EXTT6=
EXTT7=
EXTT8=
EXTT9=
EXTT10=
EXTT11=
EXTT12=
EXTT13=
EXTT14=
EXTT15=
PLAYORDER=
